{
    "asset" : {
        "generator" : "Khronos glTF Blender I/O v3.3.32",
        "version" : "2.0"
    },
    "scene" : 0,
    "scenes" : [
        {
            "name" : "Scene",
            "nodes" : [
                0,
                1,
                2,
                3,
                4,
                5
            ]
        }
    ],
    "nodes" : [
        {
            "mesh" : 0,
            "name" : "Cube.005",
            "rotation" : [
                0.31289738416671753,
                -0.2580799162387848,
                0.08876527100801468,
                0.9097311496734619
            ],
            "scale" : [
                1,
                1,
                0.3914908170700073
            ],
            "translation" : [
                -2.361186981201172,
                -12.861566543579102,
                2.9807958602905273
            ]
        },
        {
            "mesh" : 1,
            "name" : "Cube.004",
            "rotation" : [
                0.15779957175254822,
                0.8268765211105347,
                -0.28439998626708984,
                0.45879310369491577
            ],
            "scale" : [
                1,
                1,
                0.3914908170700073
            ],
            "translation" : [
                3.3519814014434814,
                -15.351669311523438,
                -1.6355085372924805
            ]
        },
        {
            "mesh" : 2,
            "name" : "Cube.003",
            "rotation" : [
                0.29257309436798096,
                0.413071870803833,
                -0.14207395911216736,
                0.8506395220756531
            ],
            "scale" : [
                1,
                1,
                0.3914908170700073
            ],
            "translation" : [
                2.4641785621643066,
                -8.323152542114258,
                2.969632625579834
            ]
        },
        {
            "mesh" : 3,
            "name" : "Cube.002",
            "rotation" : [
                0.07158991694450378,
                -0.9224382042884827,
                0.31726792454719543,
                0.20814357697963715
            ],
            "scale" : [
                1,
                1,
                0.39149078726768494
            ],
            "translation" : [
                -1.4733846187591553,
                -10.813255310058594,
                -3.230863571166992
            ]
        },
        {
            "mesh" : 4,
            "name" : "Cube.001",
            "rotation" : [
                0.30425670742988586,
                -0.33418986201286316,
                0.11494288593530655,
                0.884609043598175
            ],
            "scale" : [
                1,
                1,
                0.39149078726768494
            ],
            "translation" : [
                -2.7498908042907715,
                -2.8208279609680176,
                1.6623749732971191
            ]
        },
        {
            "mesh" : 5,
            "name" : "Cube",
            "rotation" : [
                0.18131600320339203,
                0.78505539894104,
                -0.27001577615737915,
                0.5271660089492798
            ],
            "scale" : [
                1,
                1,
                0.3914908170700073
            ],
            "translation" : [
                3.6603586673736572,
                -5.3109307289123535,
                -1.9236048460006714
            ]
        }
    ],
    "materials" : [
        {
            "doubleSided" : true,
            "name" : "Material.001",
            "pbrMetallicRoughness" : {
                "baseColorFactor" : [
                    0.6463742256164551,
                    0.3987673223018646,
                    0.11290581524372101,
                    1
                ],
                "metallicFactor" : 0.914634108543396,
                "roughnessFactor" : 0.4878048896789551
            }
        }
    ],
    "meshes" : [
        {
            "name" : "Cube.005",
            "primitives" : [
                {
                    "attributes" : {
                        "POSITION" : 0,
                        "NORMAL" : 1,
                        "TEXCOORD_0" : 2
                    },
                    "indices" : 3,
                    "material" : 0
                }
            ]
        },
        {
            "name" : "Cube.004",
            "primitives" : [
                {
                    "attributes" : {
                        "POSITION" : 4,
                        "NORMAL" : 5,
                        "TEXCOORD_0" : 6
                    },
                    "indices" : 3,
                    "material" : 0
                }
            ]
        },
        {
            "name" : "Cube.003",
            "primitives" : [
                {
                    "attributes" : {
                        "POSITION" : 7,
                        "NORMAL" : 8,
                        "TEXCOORD_0" : 9
                    },
                    "indices" : 3,
                    "material" : 0
                }
            ]
        },
        {
            "name" : "Cube.002",
            "primitives" : [
                {
                    "attributes" : {
                        "POSITION" : 10,
                        "NORMAL" : 11,
                        "TEXCOORD_0" : 12
                    },
                    "indices" : 3,
                    "material" : 0
                }
            ]
        },
        {
            "name" : "Cube.001",
            "primitives" : [
                {
                    "attributes" : {
                        "POSITION" : 13,
                        "NORMAL" : 14,
                        "TEXCOORD_0" : 15
                    },
                    "indices" : 3,
                    "material" : 0
                }
            ]
        },
        {
            "name" : "Cube.006",
            "primitives" : [
                {
                    "attributes" : {
                        "POSITION" : 16,
                        "NORMAL" : 17,
                        "TEXCOORD_0" : 18
                    },
                    "indices" : 3,
                    "material" : 0
                }
            ]
        }
    ],
    "accessors" : [
        {
            "bufferView" : 0,
            "componentType" : 5126,
            "count" : 1298,
            "max" : [
                1,
                1.4511120319366455,
                1
            ],
            "min" : [
                -1,
                -1.2137168645858765,
                -1
            ],
            "type" : "VEC3"
        },
        {
            "bufferView" : 1,
            "componentType" : 5126,
            "count" : 1298,
            "type" : "VEC3"
        },
        {
            "bufferView" : 2,
            "componentType" : 5126,
            "count" : 1298,
            "type" : "VEC2"
        },
        {
            "bufferView" : 3,
            "componentType" : 5123,
            "count" : 6660,
            "type" : "SCALAR"
        },
        {
            "bufferView" : 4,
            "componentType" : 5126,
            "count" : 1298,
            "max" : [
                1,
                1.4511120319366455,
                1
            ],
            "min" : [
                -1,
                -1.2137168645858765,
                -1
            ],
            "type" : "VEC3"
        },
        {
            "bufferView" : 5,
            "componentType" : 5126,
            "count" : 1298,
            "type" : "VEC3"
        },
        {
            "bufferView" : 6,
            "componentType" : 5126,
            "count" : 1298,
            "type" : "VEC2"
        },
        {
            "bufferView" : 7,
            "componentType" : 5126,
            "count" : 1298,
            "max" : [
                1,
                1.4511120319366455,
                1
            ],
            "min" : [
                -1,
                -1.2137168645858765,
                -1
            ],
            "type" : "VEC3"
        },
        {
            "bufferView" : 8,
            "componentType" : 5126,
            "count" : 1298,
            "type" : "VEC3"
        },
        {
            "bufferView" : 9,
            "componentType" : 5126,
            "count" : 1298,
            "type" : "VEC2"
        },
        {
            "bufferView" : 10,
            "componentType" : 5126,
            "count" : 1298,
            "max" : [
                1,
                1.4511120319366455,
                1
            ],
            "min" : [
                -1,
                -1.2137168645858765,
                -1
            ],
            "type" : "VEC3"
        },
        {
            "bufferView" : 11,
            "componentType" : 5126,
            "count" : 1298,
            "type" : "VEC3"
        },
        {
            "bufferView" : 12,
            "componentType" : 5126,
            "count" : 1298,
            "type" : "VEC2"
        },
        {
            "bufferView" : 13,
            "componentType" : 5126,
            "count" : 1298,
            "max" : [
                1,
                1.4511120319366455,
                1
            ],
            "min" : [
                -1,
                -1.2137168645858765,
                -1
            ],
            "type" : "VEC3"
        },
        {
            "bufferView" : 14,
            "componentType" : 5126,
            "count" : 1298,
            "type" : "VEC3"
        },
        {
            "bufferView" : 15,
            "componentType" : 5126,
            "count" : 1298,
            "type" : "VEC2"
        },
        {
            "bufferView" : 16,
            "componentType" : 5126,
            "count" : 1298,
            "max" : [
                1,
                1.4511120319366455,
                1
            ],
            "min" : [
                -1,
                -1.2137168645858765,
                -1
            ],
            "type" : "VEC3"
        },
        {
            "bufferView" : 17,
            "componentType" : 5126,
            "count" : 1298,
            "type" : "VEC3"
        },
        {
            "bufferView" : 18,
            "componentType" : 5126,
            "count" : 1298,
            "type" : "VEC2"
        }
    ],
    "bufferViews" : [
        {
            "buffer" : 0,
            "byteLength" : 15576,
            "byteOffset" : 0,
            "target" : 34962
        },
        {
            "buffer" : 0,
            "byteLength" : 15576,
            "byteOffset" : 15576,
            "target" : 34962
        },
        {
            "buffer" : 0,
            "byteLength" : 10384,
            "byteOffset" : 31152,
            "target" : 34962
        },
        {
            "buffer" : 0,
            "byteLength" : 13320,
            "byteOffset" : 41536,
            "target" : 34963
        },
        {
            "buffer" : 0,
            "byteLength" : 15576,
            "byteOffset" : 54856,
            "target" : 34962
        },
        {
            "buffer" : 0,
            "byteLength" : 15576,
            "byteOffset" : 70432,
            "target" : 34962
        },
        {
            "buffer" : 0,
            "byteLength" : 10384,
            "byteOffset" : 86008,
            "target" : 34962
        },
        {
            "buffer" : 0,
            "byteLength" : 15576,
            "byteOffset" : 96392,
            "target" : 34962
        },
        {
            "buffer" : 0,
            "byteLength" : 15576,
            "byteOffset" : 111968,
            "target" : 34962
        },
        {
            "buffer" : 0,
            "byteLength" : 10384,
            "byteOffset" : 127544,
            "target" : 34962
        },
        {
            "buffer" : 0,
            "byteLength" : 15576,
            "byteOffset" : 137928,
            "target" : 34962
        },
        {
            "buffer" : 0,
            "byteLength" : 15576,
            "byteOffset" : 153504,
            "target" : 34962
        },
        {
            "buffer" : 0,
            "byteLength" : 10384,
            "byteOffset" : 169080,
            "target" : 34962
        },
        {
            "buffer" : 0,
            "byteLength" : 15576,
            "byteOffset" : 179464,
            "target" : 34962
        },
        {
            "buffer" : 0,
            "byteLength" : 15576,
            "byteOffset" : 195040,
            "target" : 34962
        },
        {
            "buffer" : 0,
            "byteLength" : 10384,
            "byteOffset" : 210616,
            "target" : 34962
        },
        {
            "buffer" : 0,
            "byteLength" : 15576,
            "byteOffset" : 221000,
            "target" : 34962
        },
        {
            "buffer" : 0,
            "byteLength" : 15576,
            "byteOffset" : 236576,
            "target" : 34962
        },
        {
            "buffer" : 0,
            "byteLength" : 10384,
            "byteOffset" : 252152,
            "target" : 34962
        }
    ],
    "buffers" : [
        {
            "byteLength" : 262536,
            "uri" : "data:application/octet-stream;base64,"
        }
    ]
}
